<svg width="4000" height="4000" viewBox="0 0 4000 4000" fill="none" xmlns="http://www.w3.org/2000/svg">
<path d="M2692.64 281.402C2530.21 298.744 2387.85 363.546 2281.99 468.507C2211.73 537.873 2146.03 639.184 2117.74 723.153C2107.7 751.447 2097.66 774.265 2094.92 774.265C2091.27 774.265 2082.15 750.535 2073.02 721.328C2048.38 643.748 1989.98 532.397 1961.69 510.492C1931.58 486.762 1869.53 484.936 1827.55 505.929C1770.06 535.135 1684.28 602.676 1670.59 628.232C1650.52 667.478 1653.25 712.201 1678.81 747.796C1797.44 912.084 1823.9 969.585 1835.76 1089.15C1843.06 1158.52 1840.33 1159.43 1766.41 1130.22C1740.86 1120.18 1713.48 1111.97 1706.18 1111.97C1676.07 1111.97 1630.44 1142.09 1604.89 1177.68C1573.86 1222.41 1537.36 1239.75 1471.66 1239.75C1410.52 1239.75 1377.67 1265.3 1369.46 1318.24C1360.33 1380.3 1346.64 1397.65 1293.71 1413.16C1234.4 1429.59 1218.89 1448.76 1218.89 1505.34C1218.89 1552.81 1213.41 1560.11 1146.8 1595.7C1093.87 1624.91 1077.44 1655.94 1090.22 1702.49C1108.47 1767.29 1103.91 1783.72 1059.19 1812.02C1010.83 1842.13 1007.18 1849.44 1019.04 1889.6C1030.9 1933.41 1029.08 1980.87 1014.48 2002.77C1007.18 2012.81 984.363 2032.89 964.287 2046.58C944.211 2061.18 925.048 2080.35 922.311 2089.48C918.66 2099.52 926.873 2133.29 939.649 2165.23C952.424 2198.09 963.375 2233.69 963.375 2246.46C963.375 2258.33 946.037 2293.93 925.048 2325.87C874.858 2399.8 873.946 2433.57 921.398 2498.37C967.025 2560.44 971.588 2594.21 941.474 2659.01C928.698 2688.22 917.748 2719.25 917.748 2728.38C917.748 2737.5 936.911 2759.41 959.725 2778.57C1019.95 2828.77 1030.9 2853.42 1023.6 2936.47C1017.21 3017.7 1026.34 3044.17 1071.05 3066.08C1116.68 3088.9 1126.72 3100.76 1133.11 3137.27C1141.32 3182.9 1158.66 3207.55 1195.16 3224.89C1226.19 3239.49 1239.87 3262.31 1250.82 3317.07C1259.04 3360.88 1290.06 3383.7 1347.55 3390.09C1384.06 3393.74 1404.13 3401.95 1424.21 3420.21C1478.05 3470.41 1516.37 3493.23 1594.85 3520.61C1702.53 3558.03 1715.31 3565.33 1786.49 3630.13C1864.96 3702.24 1907.85 3722.32 1989.98 3722.32C2072.11 3722.32 2113.17 3703.15 2188.92 3631.96C2252.79 3573.54 2289.3 3551.64 2368.69 3526.08C2442.6 3502.35 2497.35 3472.23 2528.38 3439.38C2561.23 3403.78 2603.21 3384.61 2646.1 3384.61C2689.9 3384.61 2713.63 3360.88 2729.14 3302.47C2741.91 3252.27 2753.78 3237.67 2804.88 3210.29C2826.78 3198.42 2834.08 3185.64 2841.38 3150.96C2847.77 3120.84 2858.72 3099.85 2875.15 3087.98C2963.66 3019.53 2959.1 3030.48 2951.8 2910C2948.15 2849.77 2964.57 2816.91 3017.5 2779.49C3059.48 2749.37 3063.13 2723.81 3034.84 2662.66C3007.46 2601.51 3011.11 2564.09 3049.44 2507.5C3099.63 2435.4 3100.54 2398.89 3054 2329.52C3011.11 2264.72 3006.55 2226.39 3034.84 2170.71C3064.95 2111.38 3060.39 2090.39 3002.9 2038.37C2947.24 1988.17 2943.59 1977.22 2956.36 1892.33L2963.66 1845.79L2920.77 1811.1L2877.88 1775.51L2884.27 1714.36C2892.48 1635.86 2883.36 1620.35 2817.66 1588.4L2765.64 1563.76L2760.17 1505.34C2753.78 1440.54 2733.7 1413.16 2690.81 1413.16C2666.17 1413.16 2632.41 1397.65 2622.37 1382.13C2618.72 1376.65 2615.07 1362.96 2615.07 1352.01C2615.07 1315.5 2587.7 1260.74 2563.97 1249.79C2551.19 1244.31 2523.82 1239.75 2501.92 1239.75C2441.69 1239.75 2411.58 1225.14 2365.04 1171.29C2312.11 1109.23 2280.17 1101.01 2211.73 1129.31C2141.46 1158.52 2142.38 1158.52 2138.73 1070.9L2135.99 992.402L2186.18 999.704C2213.55 1003.35 2298.42 1007.01 2373.25 1007.01C2516.52 1007.01 2585.87 995.141 2678.04 954.069C2873.32 868.274 3048.53 654.7 3104.19 432.912C3123.36 354.419 3115.14 332.514 3060.39 316.998C2933.55 283.227 2799.4 270.45 2692.64 281.402ZM2937.2 394.578C2970.96 400.967 3000.16 408.269 3001.99 410.094C3008.38 415.57 2951.8 544.262 2917.12 605.414C2900.7 635.533 2853.24 693.034 2812.18 733.193C2685.34 859.147 2532.94 916.648 2346.79 909.346C2299.33 908.433 2257.36 903.87 2253.71 900.219C2246.41 892.004 2261.92 878.314 2391.5 779.741C2447.16 737.757 2543.89 672.042 2607.77 633.708C2723.66 563.429 2740.09 551.564 2727.31 543.35C2715.45 536.048 2595 569.818 2520.17 600.85C2448.99 630.97 2321.23 706.725 2250.97 761.487C2229.07 778.829 2208.99 790.694 2206.25 787.956C2198.04 779.741 2266.48 650.137 2307.55 596.287C2378.72 501.365 2504.65 421.959 2625.11 395.491C2699.94 379.975 2856.9 379.062 2937.2 394.578ZM1925.19 634.62C1953.48 693.034 1992.72 802.559 2009.15 871.925C2023.75 933.989 2042.91 1109.23 2036.52 1119.27C2034.7 1122.92 2012.8 1123.83 1987.24 1122.92L1942.53 1119.27L1936.14 1059.03C1924.28 941.291 1873.18 821.726 1796.52 731.368C1774.62 704.899 1758.2 679.343 1761.85 673.867C1768.23 663.827 1885.95 591.723 1895.99 591.723C1899.64 591.723 1912.42 610.89 1925.19 634.62ZM1757.28 1239.75C1813.86 1262.56 1844.89 1262.56 1924.28 1242.48C1981.77 1226.97 1989.07 1226.97 2047.47 1242.48C2127.78 1263.48 2168.84 1262.56 2224.5 1237.92L2270.13 1218.75L2306.63 1261.65C2351.35 1313.68 2385.11 1331.93 2449.9 1339.23L2499.18 1344.71L2514.69 1393.08C2533.86 1451.5 2561.23 1482.53 2611.42 1505.34C2643.36 1519.95 2649.75 1528.16 2654.31 1554.63C2662.52 1604.83 2693.55 1646.81 2738.26 1668.72L2779.33 1688.8L2773.85 1740.82C2767.47 1801.06 2784.8 1849.44 2821.31 1874.08C2840.47 1885.94 2843.21 1895.07 2843.21 1940.71C2843.21 2001.86 2865.11 2053.88 2906.17 2094.96L2934.46 2124.16L2919.86 2178.01C2899.78 2250.12 2908 2303.05 2949.06 2363.29C2966.4 2388.85 2980.09 2413.49 2980.09 2417.14C2980.09 2420.79 2966.4 2445.44 2949.06 2470.99C2908.91 2530.32 2899.78 2584.17 2918.95 2651.71L2932.64 2701.91L2897.05 2749.37C2854.16 2805.04 2841.38 2847.03 2845.03 2917.31C2847.77 2968.42 2846.86 2969.33 2811.27 2996.71C2785.72 3015.88 2768.38 3040.52 2754.69 3074.29C2741 3109.89 2725.49 3129.97 2702.68 3144.57C2662.52 3170.13 2640.62 3202.07 2634.24 3245.88C2629.67 3269.61 2623.28 3280.56 2610.51 3282.39C2551.19 3292.43 2521.08 3307.95 2469.07 3352.67C2423.44 3391.91 2396.97 3407.43 2346.79 3422.03C2252.79 3450.33 2200.78 3479.53 2135.08 3540.69C2072.11 3599.1 2030.13 3621.92 1986.33 3621.92C1943.44 3621.92 1916.98 3608.23 1857.66 3553.46C1780.1 3482.27 1728.08 3451.24 1640.48 3424.77C1581.16 3406.52 1554.7 3392.83 1518.2 3359.97C1466.18 3313.42 1409.61 3285.13 1372.19 3284.22C1353.03 3284.22 1346.64 3279.65 1346.64 3265.96C1346.64 3225.8 1316.53 3173.78 1278.2 3147.31C1254.48 3130.88 1237.14 3110.8 1232.57 3095.28C1222.54 3054.21 1193.33 3013.14 1158.66 2992.15C1128.54 2972.98 1127.63 2971.16 1133.11 2928.26C1141.32 2866.19 1116.68 2790.44 1073.79 2742.98C1040.94 2706.47 1040.03 2703.73 1050.98 2672.7C1067.4 2627.06 1066.49 2540.36 1049.15 2505.67C1040.94 2489.25 1024.51 2462.78 1011.74 2446.35L988.926 2416.23L1023.6 2366.03C1051.89 2324.96 1059.19 2305.79 1061.93 2261.07C1063.75 2230.95 1061.02 2188.05 1054.63 2165.23C1042.77 2124.16 1042.77 2124.16 1075.62 2090.39C1114.86 2050.23 1138.58 1989.08 1135.84 1936.14C1133.11 1904.2 1137.67 1893.25 1166.87 1861.3C1207.02 1816.58 1214.32 1791.94 1203.37 1735.35L1195.16 1691.54L1236.22 1668.72C1284.59 1642.25 1314.7 1601.18 1322 1552.81C1327.48 1522.69 1332.95 1515.38 1360.33 1505.34C1425.12 1482.53 1450.67 1448.76 1468.92 1364.79C1474.4 1341.97 1478.05 1340.14 1517.29 1340.14C1573.86 1340.14 1631.35 1310.94 1671.51 1261.65C1689.76 1239.75 1706.18 1221.49 1708.01 1221.49C1709.83 1221.49 1731.73 1229.71 1757.28 1239.75Z" fill="#024DB2"/>
<path d="M2142.38 1424.11C2127.78 1438.72 2128.69 1481.61 2143.29 1492.57C2148.76 1498.04 2172.49 1504.43 2194.39 1508.08C2266.48 1519.04 2313.93 1560.11 2313.93 1612.13C2313.93 1637.69 2350.44 1666.89 2396.06 1676.93C2450.81 1688.8 2487.32 1728.96 2487.32 1777.33C2487.32 1822.97 2513.78 1849.44 2548.46 1836.66C2591.35 1822.06 2595.91 1749.95 2558.49 1675.11C2540.24 1639.51 2477.28 1592.05 2433.48 1582.01C2416.14 1577.45 2404.28 1563.76 2388.76 1530.9C2354.09 1458.8 2281.08 1414.07 2195.3 1413.16C2171.58 1413.16 2148.76 1417.72 2142.38 1424.11Z" fill="#024DB2"/>
<path d="M1524.59 1634.04C1450.67 1659.59 1392.27 1742.65 1392.27 1822.06C1392.27 1854.91 1387.71 1864.95 1359.42 1889.6C1310.14 1933.41 1288.24 1982.69 1287.33 2052.06C1287.33 2084.92 1292.8 2125.07 1300.1 2141.5C1315.62 2178.01 1348.47 2188.96 1374.93 2165.23C1390.44 2150.63 1392.27 2141.5 1386.79 2088.57C1380.41 2017.37 1393.18 1982.69 1439.72 1950.75C1486.26 1919.71 1492.65 1906.94 1492.65 1847.61C1492.65 1772.77 1514.55 1737.17 1567.48 1723.48C1624.05 1707.97 1634.09 1701.58 1636.83 1676.02C1642.3 1629.47 1591.2 1610.31 1524.59 1634.04Z" fill="#024DB2"/>
<path d="M2243.67 1798.32C2211.73 1802.89 2186.18 1811.1 2186.18 1814.75C2186.18 1819.32 2201.69 1832.09 2221.77 1843.05C2246.41 1856.74 2263.74 1875.9 2278.34 1906.94C2289.29 1931.58 2302.07 1951.66 2305.72 1951.66C2313.02 1951.66 2341.31 1836.66 2341.31 1806.54C2341.31 1784.63 2334.01 1784.63 2243.67 1798.32Z" fill="#024DB2"/>
<path d="M1643.22 1916.06C1646.87 1942.53 1655.08 1980.87 1660.56 2000.95L1671.51 2038.37L1696.14 1991.82C1712.57 1959.87 1732.65 1937.06 1762.76 1917.89C1812.04 1885.03 1809.3 1883.21 1703.44 1873.17L1636.83 1866.78L1643.22 1916.06Z" fill="#4987D9"/>
<path d="M2593.17 2058.45C2611.42 2088.57 2620.55 2119.6 2624.2 2156.11L2628.76 2210.87L2678.04 2146.07C2704.5 2110.47 2726.4 2077.61 2726.4 2073.96C2726.4 2065.75 2601.38 2016.46 2580.4 2016.46C2571.27 2015.55 2575.83 2030.15 2593.17 2058.45Z" fill="#4987D9"/>
<path d="M1448.85 2353.25C1412.34 2378.81 1383.14 2403.45 1383.14 2408.01C1383.14 2421.7 1514.55 2510.24 1518.2 2500.2C1520.02 2494.72 1514.55 2471.9 1506.34 2450C1491.74 2411.67 1491.74 2406.19 1506.34 2362.38C1514.55 2336.82 1520.02 2314.01 1518.2 2311.27C1515.46 2309.44 1484.44 2328.61 1448.85 2353.25Z" fill="#024DB2"/>
<path d="M2605.95 2585.99C2596.82 2596.95 2595.91 2612.46 2603.21 2651.71C2615.98 2723.81 2605.95 2754.84 2551.19 2800.48L2505.57 2838.81V2897.23C2505.57 2931 2500.09 2967.51 2491.88 2982.11C2478.19 3008.58 2429.83 3037.78 2398.8 3037.78C2375.07 3037.78 2359.56 3055.13 2359.56 3083.42C2359.56 3114.45 2375.07 3129.05 2409.75 3129.05C2461.77 3129.05 2507.39 3109.89 2545.72 3071.55C2586.78 3030.48 2605.95 2981.2 2605.95 2920.04C2605.95 2888.1 2611.42 2878.06 2641.54 2849.77C2690.81 2805.96 2709.98 2753.02 2704.5 2677.26C2698.11 2605.16 2679.86 2572.3 2643.36 2572.3C2628.76 2572.3 2612.33 2578.69 2605.95 2585.99Z" fill="#024DB2"/>
<path d="M1293.71 2687.3C1261.78 2736.59 1249.91 2761.23 1258.13 2764.88C1280.94 2777.66 1400.48 2804.13 1406.87 2797.74C1410.52 2795 1400.48 2777.66 1384.06 2759.41C1362.15 2734.76 1355.77 2718.34 1354.85 2688.22C1353.94 2609.72 1344.82 2609.72 1293.71 2687.3Z" fill="#4987D9"/>
<path d="M2282.91 2817.82C2266.48 2848.85 2246.41 2872.58 2221.77 2888.1C2200.78 2900.88 2188 2914.57 2191.65 2919.13C2201.69 2928.26 2341.31 2944.69 2345.87 2937.39C2349.52 2931 2317.58 2783.14 2311.2 2775.84C2308.46 2773.1 2295.68 2792.27 2282.91 2817.82Z" fill="#024DB2"/>
<path d="M1427.86 2907.27C1411.43 2910.92 1392.27 2946.51 1392.27 2972.98C1392.27 3004.01 1420.56 3069.73 1445.2 3096.2C1472.57 3125.4 1532.8 3155.52 1562.91 3156.44C1577.51 3156.44 1588.46 3166.48 1601.24 3192.03C1638.65 3264.14 1718.05 3311.6 1802 3311.6C1841.24 3311.6 1875.91 3287.87 1875.91 3261.4C1875.91 3234.02 1841.24 3211.2 1801.09 3211.2C1747.25 3211.2 1707.09 3183.82 1681.54 3131.79C1660.56 3086.16 1639.57 3071.55 1576.6 3056.04C1530.97 3044.17 1504.51 3021.35 1497.21 2985.76C1483.52 2917.31 1466.18 2899.05 1427.86 2907.27Z" fill="#024DB2"/>
</svg>
